<svg width="3007" height="3007" viewBox="0 0 3007 3007" fill="none" xmlns="http://www.w3.org/2000/svg">
<path d="M0 90C0 40.2944 40.2944 0 90 0H2917C2966.71 0 3007 40.2944 3007 90V2917C3007 2966.71 2966.71 3007 2917 3007H90C40.2944 3007 0 2966.71 0 2917V90Z" fill="#D9D9D9"/>
<g clip-path="url(#clip0)">
<path d="M1472.33 354.825C1526.81 326.412 1593.32 392.325 1564.37 446.762C1547.56 491.137 1483.81 502.937 1451.25 469.112C1416.75 436.65 1428 372.487 1472.33 354.825ZM886.262 418C919.362 404.375 961.262 434.7 957.887 470.775C961.4 509.937 913.512 538.762 879.775 520.15C835.075 502.837 840.187 430.275 886.262 418ZM2086.59 521.25C2034.86 515 2026.68 433.675 2076.48 417.3C2115.1 398.462 2150.54 433.787 2156.19 470.4C2148.09 501.662 2121.91 530.287 2086.59 521.25ZM1019.61 667.437C1074.95 632.437 1153.91 684.562 1145.4 748.837C1142.52 813.737 1056.32 851.337 1007.69 807.462C960.663 773 967.787 693.937 1019.61 667.437ZM1864.37 704.575C1889.06 640.95 1989.1 639.025 2017.2 700.962C2044.97 749.162 2010.81 808.85 1961.33 825.237C1895.78 837.475 1833.51 766.612 1864.37 704.575ZM1401.75 821.625C1401.21 766.937 1451.02 726.187 1503 722.462C1537.47 729.375 1575.05 744.062 1589.84 778.85C1617.4 826.837 1592.92 892.912 1543.12 914.937C1520.35 927.7 1493.43 922.912 1468.62 921.425C1430.71 902.812 1398.79 866.312 1401.75 821.625ZM530.187 901.312C580.737 870.237 648.937 926.95 629.8 981.862C619.262 1029.36 555.412 1048.69 518.912 1018.36C479.95 989.95 486.125 921.637 530.187 901.312ZM2401.75 901.212C2444.64 867.912 2515.41 906.112 2510.3 960.262C2513.17 1009.64 2451.99 1046.88 2409.41 1021.45C2362.53 1000.38 2357.74 928.237 2401.75 901.212ZM1646.85 999.525C1717.62 974.1 1801.69 1004.53 1842.02 1067.63C1895.24 1144.76 1866.92 1262.24 1784.35 1306.5C1698.79 1358.85 1573.85 1314.48 1542.25 1218.93C1506.38 1133.39 1558.64 1026.34 1646.85 999.525ZM1231.6 1007.94C1310.04 970.913 1415.6 1001.98 1453.49 1082.21C1498.08 1160.31 1463.6 1269.06 1383.89 1309.39C1304.08 1354.71 1191.48 1320.35 1152.85 1236.5C1109.54 1155.41 1148 1045.28 1231.6 1007.94ZM815.812 1150.09C821.775 1099.55 869.45 1066.66 917.55 1063.26C969.375 1069.51 1010.77 1109.76 1016.41 1162.21C1013.01 1214.14 972.888 1264.89 917.863 1264.58C857.325 1269.79 804.25 1209.56 815.812 1150.09ZM2043.91 1074.25C2106.06 1038.08 2192.36 1090.74 2189.6 1162.14C2193.86 1237.79 2098.35 1291.1 2036.46 1246.72C1972.18 1209.77 1977.19 1105.71 2043.91 1074.25ZM1062.61 1340.88C1135.3 1320.88 1218.41 1355.14 1254.06 1421.95C1293.11 1489.2 1277.15 1582.62 1216.5 1631.95C1138.71 1704.3 995.25 1675.25 953.85 1576.51C906.275 1486 964.063 1364.7 1062.61 1340.88ZM1850.23 1340.5C1920.89 1320.29 2003.9 1347.53 2041.89 1411.9C2092.11 1485.53 2068.14 1595.34 1993.36 1642.8C1915.04 1697.91 1793.71 1668.98 1750.61 1582.8C1698.36 1493.66 1750.94 1367.69 1850.23 1340.5ZM595.1 1424.5C657.887 1400.75 727.487 1470.04 702.05 1532.29C686.512 1589 606.587 1609.96 565.3 1568.15C516.987 1528.89 534.875 1441.53 595.1 1424.5ZM2296.98 1514.84C2295.16 1462.81 2333.22 1416.74 2386.57 1413.86C2429.57 1420.68 2471.39 1455.36 2467.99 1502.18C2471.92 1564 2397.43 1606.03 2344.75 1576.98C2320.06 1564.43 2307.4 1539.1 2296.98 1514.84ZM286.375 1455.04C324.15 1438.55 370.875 1471.29 362.25 1513.24C360.225 1560.74 290.1 1579 264.337 1539.31C241.575 1511.75 255.2 1469.25 286.375 1455.04ZM2668.16 1454.09C2694.76 1435.15 2737.44 1448.76 2747.97 1479.84C2765.85 1513.77 2733.07 1560.27 2694.88 1554.54C2641.25 1559.42 2623.9 1477.7 2668.16 1454.09ZM1267.79 1682.1C1367.19 1656.25 1474.04 1739.14 1474.66 1841.49C1481.15 1944.91 1375.91 2036.62 1274.16 2012.74C1195.51 2000.07 1133.8 1924.31 1136.35 1844.84C1136.14 1768.82 1193.5 1698.17 1267.79 1682.1ZM1661.44 1681.89C1762.32 1653.69 1872.36 1738.06 1870.76 1842.77C1876.09 1944.29 1774.14 2032.91 1674.51 2012.77C1580.76 2000.65 1511.59 1897.65 1537.76 1806.67C1550.98 1746.05 1601.63 1696.75 1661.44 1681.89ZM902.45 1744.89C972.262 1732.97 1037.71 1810.86 1009.4 1877.15C988.75 1947.79 885.95 1966.95 840.5 1909.25C787.187 1853.84 826.987 1752.54 902.45 1744.89ZM2056.89 1748C2119.14 1721.92 2195.55 1775.77 2190.76 1843.34C2193.26 1917.71 2098.93 1969 2038.05 1925.59C1969.1 1886.61 1981.65 1771.91 2056.89 1748ZM2379.56 2071.65C2355.19 2026.21 2399.46 1965.99 2449.91 1974.4C2475.03 1973.97 2492.59 1993.76 2508.66 2010.36C2511.96 2037.29 2517.5 2069.41 2495.15 2090.16C2464.8 2128.57 2396.05 2117.61 2379.56 2071.65ZM529.975 1987.05C577.125 1955.66 644.975 2002.48 634.375 2057.6C628.737 2106.35 567.325 2134.21 526.875 2106.55C483.462 2081.44 485.062 2009.94 529.975 1987.05ZM1461.48 2089.1C1523.2 2061.86 1601.84 2115.6 1595.99 2183.59C1600.56 2258.71 1503.3 2310.74 1442.95 2265.62C1375.91 2226.89 1387.09 2112.92 1461.48 2089.1ZM1030.04 2189.75C1082.61 2162.09 1153.16 2209.86 1148.37 2268.7C1149.97 2317.01 1102.82 2358.19 1055.15 2351.05C1015.66 2350.2 989.913 2314.8 977.25 2281.14C977.9 2244.45 993 2203.59 1030.04 2189.75ZM1903.96 2190.6C1958.03 2157.19 2034.86 2205.17 2029.75 2268.1C2031.14 2333.86 1944.3 2375.99 1893.96 2332.79C1845.23 2298.92 1851.18 2217.52 1903.96 2190.6ZM2055.94 2566.31C2031.89 2529.92 2060.2 2486.09 2099.25 2477.79C2130.65 2484.17 2163.85 2507.79 2157.25 2544.19C2152.68 2593.45 2080.62 2608.56 2055.94 2566.31ZM849.55 2534.71C859.125 2505.87 882.325 2477.21 916.275 2484.71C965.762 2488.22 980.45 2562.81 937.137 2585.8C898.187 2612.06 853 2576.1 849.55 2534.71ZM1431.56 2567.8C1441.04 2525.14 1496.26 2504.39 1532.66 2527.05C1556.71 2537.37 1563.74 2564.29 1569.91 2587.16C1566.61 2599.07 1563.66 2611 1560.76 2622.91C1545.86 2640.58 1526.71 2658.24 1501.91 2657.6C1455.83 2663 1414.25 2610.9 1431.56 2567.8Z" fill="#000C0C"/>
</g>
<defs>
<clipPath id="clip0">
<rect width="2500" height="2310" fill="white" transform="translate(253 348)"/>
</clipPath>
</defs>
</svg>
