<svg width="9783" height="3007" viewBox="0 0 9783 3007" fill="none" xmlns="http://www.w3.org/2000/svg">
<path d="M0 90C0 40.2944 40.2944 0 90 0H2917C2966.71 0 3007 40.2944 3007 90V2917C3007 2966.71 2966.71 3007 2917 3007H90C40.2944 3007 0 2966.71 0 2917V90Z" fill="#D9D9D9"></path>
<path d="M3700 1805V1231H3481V1119H4050V1231H3830V1805H3700ZM4195.06 1817C4180.4 1817 4163.4 1815 4144.06 1811C4125.4 1807.67 4107.06 1801 4089.06 1791C4071.73 1781 4057.4 1766.33 4046.06 1747C4034.73 1727 4029.06 1701 4029.06 1669C4029.06 1633 4037.06 1603.33 4053.06 1580C4069.06 1556 4091.4 1537.33 4120.06 1524C4149.4 1510 4184.06 1500.33 4224.06 1495C4264.73 1489 4309.06 1486 4357.06 1486V1443C4357.06 1427.67 4354.73 1414 4350.06 1402C4345.4 1390 4336.73 1380.67 4324.06 1374C4312.06 1366.67 4293.73 1363 4269.06 1363C4244.4 1363 4225.06 1366 4211.06 1372C4197.06 1378 4187.4 1385.33 4182.06 1394C4176.73 1402.67 4174.06 1411.67 4174.06 1421V1435H4056.06C4055.4 1431.67 4055.06 1428.33 4055.06 1425C4055.06 1421.67 4055.06 1417.67 4055.06 1413C4055.06 1383 4064.06 1357 4082.06 1335C4100.06 1313 4125.06 1296.33 4157.06 1285C4189.06 1273 4226.06 1267 4268.06 1267C4316.06 1267 4355.4 1273.67 4386.06 1287C4417.4 1300.33 4440.73 1319.33 4456.06 1344C4471.4 1368.67 4479.06 1398.67 4479.06 1434V1682C4479.06 1694.67 4482.73 1703.67 4490.06 1709C4497.4 1714.33 4505.4 1717 4514.06 1717H4546.06V1801C4539.4 1803.67 4529.73 1806.67 4517.06 1810C4504.4 1814 4488.73 1816 4470.06 1816C4452.73 1816 4437.06 1813 4423.06 1807C4409.73 1801.67 4398.4 1793.67 4389.06 1783C4379.73 1772.33 4373.06 1759.67 4369.06 1745H4363.06C4351.73 1759 4338.06 1771.67 4322.06 1783C4306.73 1793.67 4288.4 1802 4267.06 1808C4246.4 1814 4222.4 1817 4195.06 1817ZM4232.06 1717C4252.06 1717 4269.73 1714 4285.06 1708C4301.06 1702 4314.06 1693.67 4324.06 1683C4334.73 1672.33 4342.73 1659.33 4348.06 1644C4354.06 1628.67 4357.06 1612 4357.06 1594V1570C4320.4 1570 4286.4 1572.33 4255.06 1577C4224.4 1581.67 4199.73 1590.33 4181.06 1603C4163.06 1615.67 4154.06 1633.67 4154.06 1657C4154.06 1669 4156.73 1679.67 4162.06 1689C4168.06 1697.67 4176.73 1704.67 4188.06 1710C4200.06 1714.67 4214.73 1717 4232.06 1717ZM4615.73 1805V1279H4717.73L4727.73 1362H4734.73C4741.39 1345.33 4749.39 1330 4758.73 1316C4768.73 1301.33 4781.39 1289.67 4796.73 1281C4812.06 1271.67 4830.73 1267 4852.73 1267C4863.39 1267 4873.06 1268 4881.73 1270C4891.06 1272 4898.06 1274 4902.73 1276V1391H4865.73C4845.06 1391 4826.73 1394 4810.73 1400C4794.73 1405.33 4781.06 1414 4769.73 1426C4759.06 1438 4751.06 1453 4745.73 1471C4740.39 1489 4737.73 1510 4737.73 1534V1805H4615.73ZM4978.03 1978V1279H5079.03L5089.03 1349H5096.03C5113.36 1321.67 5136.03 1301.33 5164.03 1288C5192.03 1274 5223.03 1267 5257.03 1267C5300.36 1267 5337.36 1276.67 5368.03 1296C5399.36 1315.33 5423.36 1345.33 5440.03 1386C5457.36 1426.67 5466.03 1479 5466.03 1543C5466.03 1605.67 5457.36 1657.33 5440.03 1698C5422.7 1738.67 5398.7 1768.67 5368.03 1788C5338.03 1807.33 5303.36 1817 5264.03 1817C5240.03 1817 5218.03 1814.33 5198.03 1809C5178.03 1803.67 5160.36 1795.67 5145.03 1785C5129.7 1773.67 5116.7 1760 5106.03 1744H5100.03V1978H4978.03ZM5219.03 1712C5249.03 1712 5272.7 1706.33 5290.03 1695C5308.03 1683 5320.7 1665 5328.03 1641C5336.03 1617 5340.03 1586.67 5340.03 1550V1536C5340.03 1498.67 5336.03 1468 5328.03 1444C5320.7 1419.33 5308.03 1401.33 5290.03 1390C5272.7 1378 5249.03 1372 5219.03 1372C5191.7 1372 5169.03 1378.33 5151.03 1391C5133.7 1403.67 5120.7 1422.33 5112.03 1447C5104.03 1471 5100.03 1500.67 5100.03 1536V1548C5100.03 1574 5102.36 1597.33 5107.03 1618C5111.7 1638 5118.7 1655 5128.03 1669C5138.03 1683 5150.36 1693.67 5165.03 1701C5180.36 1708.33 5198.36 1712 5219.03 1712ZM5704.83 1817C5690.16 1817 5673.16 1815 5653.83 1811C5635.16 1807.67 5616.83 1801 5598.83 1791C5581.49 1781 5567.16 1766.33 5555.83 1747C5544.49 1727 5538.83 1701 5538.83 1669C5538.83 1633 5546.83 1603.33 5562.83 1580C5578.83 1556 5601.16 1537.33 5629.83 1524C5659.16 1510 5693.83 1500.33 5733.83 1495C5774.49 1489 5818.83 1486 5866.83 1486V1443C5866.83 1427.67 5864.49 1414 5859.83 1402C5855.16 1390 5846.49 1380.67 5833.83 1374C5821.83 1366.67 5803.49 1363 5778.83 1363C5754.16 1363 5734.83 1366 5720.83 1372C5706.83 1378 5697.16 1385.33 5691.83 1394C5686.49 1402.67 5683.83 1411.67 5683.83 1421V1435H5565.83C5565.16 1431.67 5564.83 1428.33 5564.83 1425C5564.83 1421.67 5564.83 1417.67 5564.83 1413C5564.83 1383 5573.83 1357 5591.83 1335C5609.83 1313 5634.83 1296.33 5666.83 1285C5698.83 1273 5735.83 1267 5777.83 1267C5825.83 1267 5865.16 1273.67 5895.83 1287C5927.16 1300.33 5950.49 1319.33 5965.83 1344C5981.16 1368.67 5988.83 1398.67 5988.83 1434V1682C5988.83 1694.67 5992.49 1703.67 5999.83 1709C6007.16 1714.33 6015.16 1717 6023.83 1717H6055.83V1801C6049.16 1803.67 6039.49 1806.67 6026.83 1810C6014.16 1814 5998.49 1816 5979.83 1816C5962.49 1816 5946.83 1813 5932.83 1807C5919.49 1801.67 5908.16 1793.67 5898.83 1783C5889.49 1772.33 5882.83 1759.67 5878.83 1745H5872.83C5861.49 1759 5847.83 1771.67 5831.83 1783C5816.49 1793.67 5798.16 1802 5776.83 1808C5756.16 1814 5732.16 1817 5704.83 1817ZM5741.83 1717C5761.83 1717 5779.49 1714 5794.83 1708C5810.83 1702 5823.83 1693.67 5833.83 1683C5844.49 1672.33 5852.49 1659.33 5857.83 1644C5863.83 1628.67 5866.83 1612 5866.83 1594V1570C5830.16 1570 5796.16 1572.33 5764.83 1577C5734.16 1581.67 5709.49 1590.33 5690.83 1603C5672.83 1615.67 5663.83 1633.67 5663.83 1657C5663.83 1669 5666.49 1679.67 5671.83 1689C5677.83 1697.67 5686.49 1704.67 5697.83 1710C5709.83 1714.67 5724.49 1717 5741.83 1717ZM6125.49 1805V1279H6227.49L6237.49 1349H6244.49C6256.49 1333 6270.49 1319 6286.49 1307C6303.16 1294.33 6321.83 1284.67 6342.49 1278C6363.83 1270.67 6387.16 1267 6412.49 1267C6445.83 1267 6475.16 1273 6500.49 1285C6526.49 1297 6546.83 1316.33 6561.49 1343C6576.16 1369.67 6583.49 1405.33 6583.49 1450V1805H6460.49V1472C6460.49 1453.33 6458.16 1438 6453.49 1426C6449.49 1413.33 6443.16 1403.33 6434.49 1396C6426.49 1388 6416.49 1382.33 6404.49 1379C6392.49 1375.67 6379.16 1374 6364.49 1374C6342.49 1374 6322.49 1379.33 6304.49 1390C6287.16 1400.67 6273.16 1415.33 6262.49 1434C6252.49 1452.67 6247.49 1474.33 6247.49 1499V1805H6125.49ZM6920.67 1805V1119H7050.67V1692H7394.67V1805H6920.67ZM7614.98 1817C7600.32 1817 7583.32 1815 7563.98 1811C7545.32 1807.67 7526.98 1801 7508.98 1791C7491.65 1781 7477.32 1766.33 7465.98 1747C7454.65 1727 7448.98 1701 7448.98 1669C7448.98 1633 7456.98 1603.33 7472.98 1580C7488.98 1556 7511.32 1537.33 7539.98 1524C7569.32 1510 7603.98 1500.33 7643.98 1495C7684.65 1489 7728.98 1486 7776.98 1486V1443C7776.98 1427.67 7774.65 1414 7769.98 1402C7765.32 1390 7756.65 1380.67 7743.98 1374C7731.98 1366.67 7713.65 1363 7688.98 1363C7664.32 1363 7644.98 1366 7630.98 1372C7616.98 1378 7607.32 1385.33 7601.98 1394C7596.65 1402.67 7593.98 1411.67 7593.98 1421V1435H7475.98C7475.32 1431.67 7474.98 1428.33 7474.98 1425C7474.98 1421.67 7474.98 1417.67 7474.98 1413C7474.98 1383 7483.98 1357 7501.98 1335C7519.98 1313 7544.98 1296.33 7576.98 1285C7608.98 1273 7645.98 1267 7687.98 1267C7735.98 1267 7775.32 1273.67 7805.98 1287C7837.32 1300.33 7860.65 1319.33 7875.98 1344C7891.32 1368.67 7898.98 1398.67 7898.98 1434V1682C7898.98 1694.67 7902.65 1703.67 7909.98 1709C7917.32 1714.33 7925.32 1717 7933.98 1717H7965.98V1801C7959.32 1803.67 7949.65 1806.67 7936.98 1810C7924.32 1814 7908.65 1816 7889.98 1816C7872.65 1816 7856.98 1813 7842.98 1807C7829.65 1801.67 7818.32 1793.67 7808.98 1783C7799.65 1772.33 7792.98 1759.67 7788.98 1745H7782.98C7771.65 1759 7757.98 1771.67 7741.98 1783C7726.65 1793.67 7708.32 1802 7686.98 1808C7666.32 1814 7642.32 1817 7614.98 1817ZM7651.98 1717C7671.98 1717 7689.65 1714 7704.98 1708C7720.98 1702 7733.98 1693.67 7743.98 1683C7754.65 1672.33 7762.65 1659.33 7767.98 1644C7773.98 1628.67 7776.98 1612 7776.98 1594V1570C7740.32 1570 7706.32 1572.33 7674.98 1577C7644.32 1581.67 7619.65 1590.33 7600.98 1603C7582.98 1615.67 7573.98 1633.67 7573.98 1657C7573.98 1669 7576.65 1679.67 7581.98 1689C7587.98 1697.67 7596.65 1704.67 7607.98 1710C7619.98 1714.67 7634.65 1717 7651.98 1717ZM8314.65 1817C8280.65 1817 8249.65 1810.33 8221.65 1797C8193.65 1783 8170.98 1762.33 8153.65 1735H8146.65L8136.65 1805H8035.65V1082H8157.65V1340H8163.65C8174.32 1324 8187.32 1310.67 8202.65 1300C8217.98 1288.67 8235.65 1280.33 8255.65 1275C8275.65 1269.67 8297.65 1267 8321.65 1267C8360.98 1267 8395.65 1276.67 8425.65 1296C8456.32 1315.33 8480.32 1345.33 8497.65 1386C8514.98 1426 8523.65 1477.67 8523.65 1541C8523.65 1605 8514.98 1657.33 8497.65 1698C8480.98 1738.67 8456.98 1768.67 8425.65 1788C8394.98 1807.33 8357.98 1817 8314.65 1817ZM8276.65 1712C8306.65 1712 8330.32 1706.33 8347.65 1695C8365.65 1683 8378.32 1665 8385.65 1641C8393.65 1617 8397.65 1586.67 8397.65 1550V1536C8397.65 1498.67 8393.65 1468 8385.65 1444C8378.32 1419.33 8365.65 1401.33 8347.65 1390C8330.32 1378 8306.65 1372 8276.65 1372C8255.98 1372 8237.98 1375.67 8222.65 1383C8207.98 1390.33 8195.65 1401 8185.65 1415C8176.32 1429 8169.32 1446.33 8164.65 1467C8159.98 1487.67 8157.65 1511 8157.65 1537V1550C8157.65 1584.67 8161.65 1614 8169.65 1638C8178.32 1662 8191.32 1680.33 8208.65 1693C8226.65 1705.67 8249.32 1712 8276.65 1712ZM8832.45 1817C8794.45 1817 8761.11 1813 8732.45 1805C8703.78 1796.33 8679.78 1784.67 8660.45 1770C8641.11 1755.33 8626.45 1738.33 8616.45 1719C8607.11 1699 8602.45 1677.33 8602.45 1654C8602.45 1650.67 8602.45 1647.67 8602.45 1645C8603.11 1642.33 8603.45 1640.33 8603.45 1639H8723.45C8723.45 1640.33 8723.45 1641.67 8723.45 1643C8723.45 1644.33 8723.45 1645.67 8723.45 1647C8724.11 1665 8729.78 1679.67 8740.45 1691C8751.11 1701.67 8765.11 1709.33 8782.45 1714C8799.78 1718.67 8818.11 1721 8837.45 1721C8854.78 1721 8871.11 1719.33 8886.45 1716C8902.45 1712 8915.45 1706 8925.45 1698C8936.11 1689.33 8941.45 1678.33 8941.45 1665C8941.45 1647.67 8934.78 1634.33 8921.45 1625C8908.11 1615.67 8890.45 1608 8868.45 1602C8847.11 1596 8824.11 1589.67 8799.45 1583C8777.45 1577 8755.45 1570.33 8733.45 1563C8711.45 1555.67 8691.45 1546.33 8673.45 1535C8656.11 1523.67 8641.78 1509 8630.45 1491C8619.78 1473 8614.45 1450.67 8614.45 1424C8614.45 1398 8620.11 1375.33 8631.45 1356C8642.78 1336.67 8658.45 1320.67 8678.45 1308C8698.45 1294.67 8722.11 1284.67 8749.45 1278C8776.78 1271.33 8806.45 1268 8838.45 1268C8869.78 1268 8898.11 1271.33 8923.45 1278C8949.45 1284.67 8971.78 1294.33 8990.45 1307C9009.78 1319 9024.45 1334 9034.45 1352C9045.11 1369.33 9050.45 1388.67 9050.45 1410C9050.45 1414.67 9050.11 1419.33 9049.45 1424C9049.45 1428.67 9049.45 1431.33 9049.45 1432H8930.45V1425C8930.45 1412.33 8926.45 1401.67 8918.45 1393C8911.11 1383.67 8900.11 1376.33 8885.45 1371C8871.45 1365.67 8853.78 1363 8832.45 1363C8816.45 1363 8802.45 1364.33 8790.45 1367C8778.45 1369.67 8768.45 1373.33 8760.45 1378C8753.11 1382.67 8747.45 1388 8743.45 1394C8739.45 1400 8737.45 1406.67 8737.45 1414C8737.45 1426.67 8742.45 1436.67 8752.45 1444C8762.45 1451.33 8775.78 1457.67 8792.45 1463C8809.78 1468.33 8828.45 1474 8848.45 1480C8872.45 1486.67 8897.11 1493.67 8922.45 1501C8947.78 1507.67 8971.11 1516.33 8992.45 1527C9014.45 1537.67 9032.11 1552.67 9045.45 1572C9058.78 1591.33 9065.45 1617 9065.45 1649C9065.45 1679.67 9059.45 1706 9047.45 1728C9036.11 1749.33 9019.78 1766.67 8998.45 1780C8977.78 1792.67 8953.11 1802 8924.45 1808C8896.45 1814 8865.78 1817 8832.45 1817Z" fill="white"></path>
<g clip-path="url(#clip0_0_1)">
<path d="M1472.33 354.825C1526.81 326.412 1593.32 392.325 1564.37 446.762C1547.56 491.137 1483.81 502.937 1451.25 469.112C1416.75 436.65 1428 372.487 1472.33 354.825ZM886.262 418C919.362 404.375 961.262 434.7 957.887 470.775C961.4 509.937 913.512 538.762 879.775 520.15C835.075 502.837 840.187 430.275 886.262 418ZM2086.59 521.25C2034.86 515 2026.68 433.675 2076.48 417.3C2115.1 398.462 2150.54 433.787 2156.19 470.4C2148.09 501.662 2121.91 530.287 2086.59 521.25ZM1019.61 667.437C1074.95 632.437 1153.91 684.562 1145.4 748.837C1142.52 813.737 1056.32 851.337 1007.69 807.462C960.663 773 967.787 693.937 1019.61 667.437ZM1864.37 704.575C1889.06 640.95 1989.1 639.025 2017.2 700.962C2044.97 749.162 2010.81 808.85 1961.33 825.237C1895.78 837.475 1833.51 766.612 1864.37 704.575ZM1401.75 821.625C1401.21 766.937 1451.02 726.187 1503 722.462C1537.47 729.375 1575.05 744.062 1589.84 778.85C1617.4 826.837 1592.92 892.912 1543.12 914.937C1520.35 927.7 1493.43 922.912 1468.62 921.425C1430.71 902.812 1398.79 866.312 1401.75 821.625ZM530.187 901.312C580.737 870.237 648.937 926.95 629.8 981.862C619.262 1029.36 555.412 1048.69 518.912 1018.36C479.95 989.95 486.125 921.637 530.187 901.312ZM2401.75 901.212C2444.64 867.912 2515.41 906.112 2510.3 960.262C2513.17 1009.64 2451.99 1046.88 2409.41 1021.45C2362.53 1000.38 2357.74 928.237 2401.75 901.212ZM1646.85 999.525C1717.62 974.1 1801.69 1004.53 1842.02 1067.63C1895.24 1144.76 1866.92 1262.24 1784.35 1306.5C1698.79 1358.85 1573.85 1314.48 1542.25 1218.93C1506.38 1133.39 1558.64 1026.34 1646.85 999.525ZM1231.6 1007.94C1310.04 970.913 1415.6 1001.98 1453.49 1082.21C1498.08 1160.31 1463.6 1269.06 1383.89 1309.39C1304.08 1354.71 1191.48 1320.35 1152.85 1236.5C1109.54 1155.41 1148 1045.28 1231.6 1007.94ZM815.812 1150.09C821.775 1099.55 869.45 1066.66 917.55 1063.26C969.375 1069.51 1010.77 1109.76 1016.41 1162.21C1013.01 1214.14 972.888 1264.89 917.863 1264.58C857.325 1269.79 804.25 1209.56 815.812 1150.09ZM2043.91 1074.25C2106.06 1038.08 2192.36 1090.74 2189.6 1162.14C2193.86 1237.79 2098.35 1291.1 2036.46 1246.72C1972.18 1209.77 1977.19 1105.71 2043.91 1074.25ZM1062.61 1340.88C1135.3 1320.88 1218.41 1355.14 1254.06 1421.95C1293.11 1489.2 1277.15 1582.62 1216.5 1631.95C1138.71 1704.3 995.25 1675.25 953.85 1576.51C906.275 1486 964.063 1364.7 1062.61 1340.88ZM1850.23 1340.5C1920.89 1320.29 2003.9 1347.53 2041.89 1411.9C2092.11 1485.53 2068.14 1595.34 1993.36 1642.8C1915.04 1697.91 1793.71 1668.98 1750.61 1582.8C1698.36 1493.66 1750.94 1367.69 1850.23 1340.5ZM595.1 1424.5C657.887 1400.75 727.487 1470.04 702.05 1532.29C686.512 1589 606.587 1609.96 565.3 1568.15C516.987 1528.89 534.875 1441.53 595.1 1424.5ZM2296.98 1514.84C2295.16 1462.81 2333.22 1416.74 2386.57 1413.86C2429.57 1420.68 2471.39 1455.36 2467.99 1502.18C2471.92 1564 2397.43 1606.03 2344.75 1576.98C2320.06 1564.43 2307.4 1539.1 2296.98 1514.84ZM286.375 1455.04C324.15 1438.55 370.875 1471.29 362.25 1513.24C360.225 1560.74 290.1 1579 264.337 1539.31C241.575 1511.75 255.2 1469.25 286.375 1455.04ZM2668.16 1454.09C2694.76 1435.15 2737.44 1448.76 2747.97 1479.84C2765.85 1513.77 2733.07 1560.27 2694.88 1554.54C2641.25 1559.42 2623.9 1477.7 2668.16 1454.09ZM1267.79 1682.1C1367.19 1656.25 1474.04 1739.14 1474.66 1841.49C1481.15 1944.91 1375.91 2036.62 1274.16 2012.74C1195.51 2000.07 1133.8 1924.31 1136.35 1844.84C1136.14 1768.82 1193.5 1698.17 1267.79 1682.1ZM1661.44 1681.89C1762.32 1653.69 1872.36 1738.06 1870.76 1842.77C1876.09 1944.29 1774.14 2032.91 1674.51 2012.77C1580.76 2000.65 1511.59 1897.65 1537.76 1806.67C1550.98 1746.05 1601.63 1696.75 1661.44 1681.89ZM902.45 1744.89C972.262 1732.97 1037.71 1810.86 1009.4 1877.15C988.75 1947.79 885.95 1966.95 840.5 1909.25C787.187 1853.84 826.987 1752.54 902.45 1744.89ZM2056.89 1748C2119.14 1721.92 2195.55 1775.77 2190.76 1843.34C2193.26 1917.71 2098.93 1969 2038.05 1925.59C1969.1 1886.61 1981.65 1771.91 2056.89 1748ZM2379.56 2071.65C2355.19 2026.21 2399.46 1965.99 2449.91 1974.4C2475.03 1973.97 2492.59 1993.76 2508.66 2010.36C2511.96 2037.29 2517.5 2069.41 2495.15 2090.16C2464.8 2128.57 2396.05 2117.61 2379.56 2071.65ZM529.975 1987.05C577.125 1955.66 644.975 2002.48 634.375 2057.6C628.737 2106.35 567.325 2134.21 526.875 2106.55C483.462 2081.44 485.062 2009.94 529.975 1987.05ZM1461.48 2089.1C1523.2 2061.86 1601.84 2115.6 1595.99 2183.59C1600.56 2258.71 1503.3 2310.74 1442.95 2265.62C1375.91 2226.89 1387.09 2112.92 1461.48 2089.1ZM1030.04 2189.75C1082.61 2162.09 1153.16 2209.86 1148.37 2268.7C1149.97 2317.01 1102.82 2358.19 1055.15 2351.05C1015.66 2350.2 989.913 2314.8 977.25 2281.14C977.9 2244.45 993 2203.59 1030.04 2189.75ZM1903.96 2190.6C1958.03 2157.19 2034.86 2205.17 2029.75 2268.1C2031.14 2333.86 1944.3 2375.99 1893.96 2332.79C1845.23 2298.92 1851.18 2217.52 1903.96 2190.6ZM2055.94 2566.31C2031.89 2529.92 2060.2 2486.09 2099.25 2477.79C2130.65 2484.17 2163.85 2507.79 2157.25 2544.19C2152.68 2593.45 2080.62 2608.56 2055.94 2566.31ZM849.55 2534.71C859.125 2505.87 882.325 2477.21 916.275 2484.71C965.762 2488.22 980.45 2562.81 937.137 2585.8C898.187 2612.06 853 2576.1 849.55 2534.71ZM1431.56 2567.8C1441.04 2525.14 1496.26 2504.39 1532.66 2527.05C1556.71 2537.37 1563.74 2564.29 1569.91 2587.16C1566.61 2599.07 1563.66 2611 1560.76 2622.91C1545.86 2640.58 1526.71 2658.24 1501.91 2657.6C1455.83 2663 1414.25 2610.9 1431.56 2567.8Z" fill="#000C0C"></path>
</g>
<defs>
<clipPath id="clip0_0_1">
<rect width="2500" height="2310" fill="white" transform="translate(253 348)"></rect>
</clipPath>
</defs>
</svg>